<svg width="600" height="104" viewBox="0 0 600 104" fill="none" xmlns="http://www.w3.org/2000/svg">
<path d="M232.578 94.5924H285.315L305.351 63.2393H252.614L232.578 94.5924Z" fill="#D70512"/>
<path d="M471.864 57.7778L507.173 2.33569H451.289L415.983 57.7778H471.864Z" fill="#D70512"/>
<path d="M162.916 63.2392C155.099 63.2392 157.525 59.4996 158.784 57.5279C161.3 53.586 165.611 46.7307 168.126 42.8899C170.642 39.0477 170.642 36.7626 165.611 36.7626H119.791L82.8662 94.6978H172.799C202.537 94.6978 219.067 71.3368 224.19 63.2407H162.916V63.2392Z" fill="#D70512"/>
<path d="M194.237 34.9873C191.721 38.9307 187.5 45.786 184.982 49.7308C183.725 51.8064 181.299 55.4421 189.115 55.4421H230.085C230.085 55.4421 236.644 45.058 242.214 36.335C249.762 24.5007 242.842 0 215.979 0H110.056L91.7262 28.86H191.811C196.842 28.86 196.752 31.1451 194.237 34.9873Z" fill="#D70512"/>
<path d="M368.779 2.33569L348.565 34.1048H325.025L345.241 2.33569H292.502L257.194 57.7778H386.209L421.516 2.33569H368.779Z" fill="#D70512"/>
<path d="M308.943 94.5924H361.681L381.716 63.2393H328.979C328.889 63.2393 308.943 94.5924 308.943 94.5924Z" fill="#D70512"/>
<path d="M411.4 63.2393C411.4 63.2393 407.534 69.3623 405.65 72.2728C399.001 82.6526 404.839 94.6963 426.493 94.6963H511.216L531.25 63.2393H411.4Z" fill="#D70512"/>
<path d="M593.75 104H543.75C540.297 104 537.5 100.767 537.5 96.7778C537.5 92.7882 540.297 89.5555 543.75 89.5555H593.75C597.203 89.5555 600 92.7882 600 96.7778C600 100.767 597.203 104 593.75 104Z" fill="#D70512"/>
<path d="M593.75 75.1111H556.25C552.797 75.1111 550 71.8785 550 67.8889C550 63.8994 552.797 60.6667 556.25 60.6667H593.75C597.203 60.6667 600 63.8994 600 67.8889C600 71.8785 597.203 75.1111 593.75 75.1111Z" fill="#D70512"/>
<path d="M593.75 46.2222H568.75C565.297 46.2222 562.5 42.9881 562.5 39C562.5 35.0119 565.297 31.7778 568.75 31.7778H593.75C597.203 31.7778 600 35.0119 600 39C600 42.9881 597.203 46.2222 593.75 46.2222Z" fill="#D70512"/>
<path d="M56.25 104H6.25C2.79875 104 0 100.767 0 96.7778C0 92.7882 2.79875 89.5555 6.25 89.5555H56.25C59.7012 89.5555 62.5 92.7882 62.5 96.7778C62.5 100.767 59.7012 104 56.25 104Z" fill="#D70512"/>
<path d="M43.75 75.1111H6.25C2.79875 75.1111 0 71.8785 0 67.8889C0 63.8994 2.79875 60.6667 6.25 60.6667H43.75C47.2012 60.6667 50 63.8994 50 67.8889C50 71.8785 47.2012 75.1111 43.75 75.1111Z" fill="#D70512"/>
<path d="M31.25 46.2222H6.25C2.79875 46.2222 0 42.9881 0 39C0 35.0119 2.79875 31.7778 6.25 31.7778H31.25C34.7012 31.7778 37.5 35.0119 37.5 39C37.5 42.9881 34.7012 46.2222 31.25 46.2222Z" fill="#D70512"/>
</svg>
