<svg width="601" height="114" viewBox="0 0 601 114" fill="none" xmlns="http://www.w3.org/2000/svg">
<path fill-rule="evenodd" clip-rule="evenodd" d="M0.0570268 22.1037C8.21603 22.0766 16.374 22.0777 24.533 21.9937C25.928 21.9797 26.223 22.5487 26.158 23.7666C26.082 25.1747 26.14 26.5907 26.14 28.0877C26.446 28.0307 26.737 28.0657 26.882 27.9367C44.129 12.6477 70.415 18.7507 78.633 40.3597C84.488 55.7567 83.385 70.6926 72.257 83.6967C60.518 97.4137 38.199 98.0697 27.062 89.2106C26.889 89.0726 26.637 89.0347 26.057 88.8067C26.057 97.0387 26.057 105.071 26.057 113.104C18.157 113.104 10.257 113.047 2.35803 113.148C0.586034 113.17 -0.00496562 112.91 3.13792e-05 110.915C0.0820284 81.3107 0.0570268 51.7077 0.0570268 22.1037ZM25.483 57.1817C25.372 65.6876 31.261 71.8266 39.679 71.9787C47.707 72.1236 53.926 66.1647 54.056 58.2027C54.205 48.9946 48.678 42.8176 40.173 42.6877C31.565 42.5556 25.598 48.4436 25.483 57.1817Z" fill="#0498BA"/>
<path fill-rule="evenodd" clip-rule="evenodd" d="M600.057 93.1036C592.744 92.6206 585.422 93.0266 578.106 92.8947C577.357 92.8817 576.597 92.8156 575.86 92.9106C574.237 93.1196 573.839 92.3557 573.951 90.8886C574.057 89.4986 573.973 88.0936 573.973 86.3466C572.489 87.5786 571.296 88.6826 569.993 89.6336C557.768 98.5416 538.376 96.4496 527.997 85.1286C515.022 70.9736 515.084 45.2336 527.839 30.9426C539.403 17.9876 561.527 16.3736 573.101 25.5856C573.268 25.7186 573.528 25.7346 573.974 25.8816C573.974 19.6076 574.07 13.4756 573.917 7.35063C573.871 5.47864 574.587 4.95663 576.21 4.65463C583.155 3.36163 590.082 1.96964 597.017 0.61763C597.415 0.539642 597.857 0.57164 598.058 0.102631C599.769 -0.27536 600.111 0.390641 600.107 2.10263C600.038 32.4366 600.057 62.7697 600.057 93.1036ZM546.058 57.2656C546.051 65.9696 551.821 72.0306 560.155 72.0746C568.676 72.1216 574.598 66.0996 574.632 57.3556C574.663 48.8456 568.729 42.8906 560.221 42.8946C551.806 42.8986 546.064 48.7256 546.058 57.2656Z" fill="#0498BA"/>
<path fill-rule="evenodd" clip-rule="evenodd" d="M418.237 19.5726C426.193 19.6946 432.878 20.8096 439.244 23.5366C454.243 29.9596 462.132 43.6486 460.827 59.9496C459.267 79.4396 446.007 90.7526 428.522 94.0476C418.135 96.0067 407.934 95.1996 398.163 91.0386C382.722 84.4656 375.917 71.3466 376.727 55.5596C377.883 33.0456 394.297 22.4676 411.842 20.1236C414.311 19.7936 416.811 19.6916 418.237 19.5726ZM404.352 57.3926C404.354 65.8746 410.508 72.1016 418.768 71.9807C427.149 71.8576 432.965 65.9236 432.973 57.4886C432.981 48.6946 427.108 42.6526 418.584 42.6866C410.189 42.7206 404.348 48.7536 404.352 57.3926Z" fill="#0498BA"/>
<path fill-rule="evenodd" clip-rule="evenodd" d="M128.733 19.5856C139.641 19.8567 149.836 22.3206 158.424 29.4996C165.574 35.4767 169.244 43.2917 170.046 52.4776C170.962 62.9696 169.03 72.7307 161.995 80.9656C155.967 88.0206 148.095 91.9036 139.133 93.7827C128.508 96.0106 118.096 95.3406 108.021 91.2156C91.303 84.3717 84.682 69.7297 86.301 53.3087C88.114 34.9337 101.03 23.9606 118.058 20.6387C121.578 19.9516 125.135 19.5756 128.733 19.5856ZM128.299 42.6876C119.778 42.6196 113.821 48.5737 113.651 57.3306C113.491 65.5596 119.805 71.9577 128.094 71.9636C136.341 71.9696 142.367 65.9266 142.46 57.5596C142.554 49.0336 136.574 42.7536 128.299 42.6876Z" fill="#0498BA"/>
<path fill-rule="evenodd" clip-rule="evenodd" d="M324.196 27.7546C332.79 19.3686 342.896 18.0126 353.74 20.9226C363.573 23.5616 368.186 30.9436 370.013 40.4506C370.502 42.9936 370.653 45.5636 370.65 48.1536C370.631 62.2346 370.608 76.3146 370.679 90.3947C370.689 92.2697 370.314 92.9846 368.248 92.9476C361.086 92.8146 353.918 92.8326 346.755 92.9396C344.816 92.9686 344.207 92.4666 344.217 90.4496C344.27 78.7056 344.184 66.9597 344.113 55.2146C344.106 54.0576 343.976 52.8856 343.759 51.7486C342.545 45.4156 340.009 43.3086 333.964 43.5356C328.147 43.7536 324.593 46.9076 324.08 52.7166C323.501 59.2786 323.917 65.8716 323.859 72.4506C323.805 78.5316 323.786 84.6146 323.885 90.6946C323.914 92.4706 323.338 92.9536 321.612 92.9326C314.281 92.8496 306.948 92.8557 299.617 92.9306C298.01 92.9467 297.511 92.5276 297.515 90.8486C297.573 68.6026 297.578 46.3576 297.51 24.1136C297.505 22.2566 298.155 21.9666 299.796 21.9846C306.961 22.0666 314.128 22.0986 321.29 21.9706C323.384 21.9326 324.133 22.5346 323.884 24.6126C323.772 25.5516 323.631 26.5766 324.196 27.7546Z" fill="#0598BA"/>
<path fill-rule="evenodd" clip-rule="evenodd" d="M210.772 19.6497C219.477 19.9476 227.418 20.6207 235.241 22.4557C236.885 22.8417 237.2 23.3486 236.789 24.9637C235.457 30.1996 234.207 35.4617 233.131 40.7557C232.729 42.7366 232.005 42.7957 230.29 42.2827C222.185 39.8607 213.956 38.3047 205.437 39.5466C204.784 39.6416 204.142 39.8307 203.507 40.0187C201.944 40.4787 200.722 41.3947 200.74 43.1237C200.759 44.9137 202.147 45.6917 203.688 46.0406C209.289 47.3096 215.059 47.6337 220.632 49.0787C223.618 49.8526 226.55 50.7607 229.34 52.0876C237.063 55.7597 240.502 61.7687 240.247 70.3056C239.945 80.4166 234.77 86.9116 225.781 90.7836C218.535 93.9027 210.835 94.6876 203.079 94.8587C193.373 95.0726 183.83 93.7836 174.469 91.1406C172.944 90.7096 172.53 90.2306 172.984 88.5957C174.518 83.0686 175.92 77.5026 177.229 71.9176C177.652 70.1136 178.296 69.9837 179.919 70.6087C188.545 73.9276 197.429 75.8736 206.753 75.1776C208.014 75.0827 209.239 74.8587 210.383 74.3466C211.67 73.7727 212.578 72.8886 212.563 71.3136C212.548 69.7257 211.622 68.8876 210.288 68.3767C207.383 67.2626 204.298 67.0177 201.254 66.6167C195.962 65.9206 190.73 64.9676 185.757 62.9676C171.383 57.1866 168.393 38.6876 180.177 28.4846C186.65 22.8806 194.554 21.0676 202.757 20.1617C205.649 19.8437 208.569 19.7847 210.772 19.6497Z" fill="#0598BA"/>
<path fill-rule="evenodd" clip-rule="evenodd" d="M245.056 49.3716C245.056 35.7046 245.098 22.0386 245.009 8.37164C244.996 6.47565 245.504 6.02664 247.354 6.05563C254.602 6.16763 261.855 6.18263 269.102 6.04865C271.093 6.01164 271.443 6.70264 271.387 8.46964C271.266 12.2996 271.435 16.1376 271.312 19.9676C271.256 21.6846 271.891 22.0656 273.473 22.0486C280.056 21.9766 286.64 22.0586 293.223 21.9916C294.957 21.9736 295.503 22.2436 294.534 23.9986C291.115 30.1876 287.765 36.4156 284.457 42.6656C283.861 43.7906 283.138 44.1676 281.901 44.1296C279.153 44.0456 276.394 44.2286 273.654 44.0616C271.764 43.9466 271.295 44.5406 271.305 46.4116C271.386 60.8276 271.35 75.2446 271.349 89.6616C271.349 92.8916 271.348 92.8926 268.145 92.8936C261.312 92.8936 254.477 92.8096 247.646 92.9446C245.595 92.9857 244.99 92.4846 245.005 90.3706C245.103 76.7056 245.056 63.0386 245.056 49.3716Z" fill="#0598BA"/>
<path fill-rule="evenodd" clip-rule="evenodd" d="M493.14 29.6096C499.128 21.5506 507.077 20.4816 515.644 21.1406C517.202 21.2596 517.954 21.8576 517.885 23.6296C517.624 30.3636 517.485 37.1026 517.367 43.8406C517.34 45.4376 516.838 45.8446 515.256 45.4356C512.26 44.6616 509.186 44.4226 506.09 44.6856C497.449 45.4206 493.187 49.9806 493.152 58.6556C493.109 69.1496 493.085 79.6436 493.187 90.1356C493.208 92.2286 492.833 93.0126 490.504 92.9556C483.43 92.7816 476.348 92.8516 469.27 92.9226C467.662 92.9386 466.926 92.6936 466.932 90.7976C466.998 68.5616 466.99 46.3246 466.942 24.0896C466.938 22.4846 467.348 21.9626 469.01 21.9816C476.42 22.0676 483.834 22.0656 491.244 21.9826C492.836 21.9636 493.269 22.4896 493.166 23.9816C493.051 25.6296 493.14 27.2916 493.14 29.6096Z" fill="#0498BA"/>
</svg>
