<svg width="82" height="78" viewBox="0 0 82 78" fill="none" xmlns="http://www.w3.org/2000/svg">
<rect width="82" height="78" fill="white"/>
<path d="M13.1562 56.7031C13.1562 56.918 13.1652 57.1776 13.1831 57.4819C13.201 57.7684 13.2637 58.0459 13.3711 58.3145C13.4785 58.583 13.6486 58.8158 13.8813 59.0127C14.1141 59.1917 14.4453 59.2812 14.875 59.2812C15.3047 59.2812 15.6359 59.1917 15.8687 59.0127C16.1014 58.8158 16.2715 58.583 16.3789 58.3145C16.4863 58.0459 16.549 57.7684 16.5669 57.4819C16.5848 57.1776 16.5938 56.918 16.5938 56.7031V14.5938H20.0312V56.7031C20.0312 56.918 20.0044 57.3118 19.9507 57.8848C19.897 58.4398 19.709 59.0127 19.3867 59.6035C19.0645 60.1943 18.5542 60.7135 17.856 61.1611C17.1577 61.6266 16.1641 61.8594 14.875 61.8594C13.5859 61.8594 12.5923 61.6266 11.894 61.1611C11.1958 60.7135 10.6855 60.1943 10.3633 59.6035C10.041 59.0127 9.85303 58.4398 9.79932 57.8848C9.74561 57.3118 9.71875 56.918 9.71875 56.7031V14.5938H13.1562V56.7031ZM33.7812 61H31.2031L26.4766 36.9375V61H23.4688V19.75H26.0469L30.8003 44.6719V19.75H33.7812V61ZM41.0859 19.75V61H37.6484V19.75H41.0859ZM55.2656 36.9375H51.8281V23.6172C51.8281 23.0085 51.6759 22.5788 51.3716 22.3281C51.0672 22.0596 50.7181 21.9253 50.3242 21.9253C50.0915 21.9253 49.8587 21.9701 49.626 22.0596C49.4111 22.1312 49.2052 22.2476 49.0083 22.4087C48.8293 22.5519 48.6771 22.731 48.5518 22.9458C48.4443 23.1427 48.3906 23.3665 48.3906 23.6172V57.1328C48.3906 57.3835 48.4443 57.6162 48.5518 57.8311C48.6771 58.0459 48.8293 58.2339 49.0083 58.395C49.2052 58.5382 49.4111 58.6546 49.626 58.7441C49.8587 58.8158 50.0915 58.8516 50.3242 58.8516C50.7181 58.8516 51.0672 58.7173 51.3716 58.4487C51.6759 58.1802 51.8281 57.7415 51.8281 57.1328V42.0938H55.2656V57.1328C55.2656 57.849 55.1134 58.4845 54.8091 59.0396C54.5047 59.5767 54.1108 60.0332 53.6274 60.4092C53.144 60.7673 52.589 61.0358 51.9624 61.2148C51.3358 61.4118 50.7002 61.5103 50.0557 61.5103C49.4111 61.5103 48.7845 61.4207 48.1758 61.2417C47.5671 61.0627 47.021 60.7941 46.5376 60.436C46.0542 60.0601 45.6693 59.6035 45.3828 59.0664C45.0964 58.5114 44.9531 57.8669 44.9531 57.1328V23.6172C44.9531 22.901 45.0964 22.2655 45.3828 21.7104C45.6872 21.1554 46.0811 20.6989 46.5645 20.3408C47.0479 19.9827 47.6029 19.7142 48.2295 19.5352C48.8561 19.3382 49.4917 19.2397 50.1362 19.2397C50.7808 19.2397 51.4074 19.3293 52.0161 19.5083C52.6248 19.6873 53.1709 19.9648 53.6543 20.3408C54.1377 20.6989 54.5226 21.1554 54.8091 21.7104C55.1134 22.2476 55.2656 22.8831 55.2656 23.6172V36.9375ZM69.0156 57.1328C69.0156 57.8848 68.8724 58.5382 68.5859 59.0933C68.3174 59.6304 67.9504 60.078 67.4849 60.436C67.0194 60.7941 66.4912 61.0537 65.9004 61.2148C65.3096 61.3939 64.7008 61.4834 64.0742 61.4834C63.4118 61.4834 62.7583 61.3849 62.1138 61.188C61.4692 61.009 60.8963 60.7404 60.395 60.3823C59.8937 60.0063 59.4819 59.5498 59.1597 59.0127C58.8553 58.4577 58.7031 57.8311 58.7031 57.1328V23.6172C58.7031 22.9368 58.8553 22.3371 59.1597 21.8179C59.4819 21.2808 59.8937 20.8332 60.395 20.4751C60.9142 20.117 61.4961 19.8485 62.1406 19.6694C62.7852 19.4725 63.4386 19.374 64.1011 19.374C64.7277 19.374 65.3364 19.4635 65.9272 19.6426C66.5181 19.8037 67.0373 20.0633 67.4849 20.4214C67.9504 20.7616 68.3174 21.2002 68.5859 21.7373C68.8724 22.2744 69.0156 22.901 69.0156 23.6172V57.1328ZM65.5781 23.6172C65.5781 23.0085 65.4259 22.5788 65.1216 22.3281C64.8351 22.0596 64.495 21.9253 64.1011 21.9253C63.8683 21.9253 63.6356 21.9701 63.4028 22.0596C63.1701 22.1312 62.9552 22.2476 62.7583 22.4087C62.5793 22.5519 62.4271 22.731 62.3018 22.9458C62.1943 23.1427 62.1406 23.3665 62.1406 23.6172V57.1328C62.1406 57.3835 62.1943 57.6162 62.3018 57.8311C62.4271 58.0459 62.5793 58.2249 62.7583 58.3682C62.9552 58.5114 63.1611 58.6278 63.376 58.7173C63.6087 58.7889 63.8415 58.8247 64.0742 58.8247C64.4681 58.8247 64.8172 58.6994 65.1216 58.4487C65.4259 58.1802 65.5781 57.7415 65.5781 57.1328V23.6172Z" fill="black"/>
</svg>
