<svg width="61" height="48" viewBox="0 0 61 48" fill="none" xmlns="http://www.w3.org/2000/svg">
<path d="M4.15625 42.7031C4.15625 42.918 4.1652 43.1776 4.18311 43.4819C4.20101 43.7684 4.26367 44.0459 4.37109 44.3145C4.47852 44.583 4.6486 44.8158 4.88135 45.0127C5.1141 45.1917 5.44531 45.2812 5.875 45.2812C6.30469 45.2812 6.6359 45.1917 6.86865 45.0127C7.1014 44.8158 7.27148 44.583 7.37891 44.3145C7.48633 44.0459 7.54899 43.7684 7.56689 43.4819C7.5848 43.1776 7.59375 42.918 7.59375 42.7031V0.59375H11.0312V42.7031C11.0312 42.918 11.0044 43.3118 10.9507 43.8848C10.897 44.4398 10.709 45.0127 10.3867 45.6035C10.0645 46.1943 9.5542 46.7135 8.85596 47.1611C8.15771 47.6266 7.16406 47.8594 5.875 47.8594C4.58594 47.8594 3.59229 47.6266 2.89404 47.1611C2.1958 46.7135 1.68555 46.1943 1.36328 45.6035C1.04102 45.0127 0.853027 44.4398 0.799316 43.8848C0.745605 43.3118 0.71875 42.918 0.71875 42.7031V0.59375H4.15625V42.7031ZM24.7812 47H22.2031L17.4766 22.9375V47H14.4688V5.75H17.0469L21.8003 30.6719V5.75H24.7812V47ZM32.0859 5.75V47H28.6484V5.75H32.0859ZM46.2656 22.9375H42.8281V9.61719C42.8281 9.00846 42.6759 8.57878 42.3716 8.32812C42.0672 8.05957 41.7181 7.92529 41.3242 7.92529C41.0915 7.92529 40.8587 7.97005 40.626 8.05957C40.4111 8.13118 40.2052 8.24756 40.0083 8.40869C39.8293 8.55192 39.6771 8.73096 39.5518 8.9458C39.4443 9.14274 39.3906 9.36654 39.3906 9.61719V43.1328C39.3906 43.3835 39.4443 43.6162 39.5518 43.8311C39.6771 44.0459 39.8293 44.2339 40.0083 44.395C40.2052 44.5382 40.4111 44.6546 40.626 44.7441C40.8587 44.8158 41.0915 44.8516 41.3242 44.8516C41.7181 44.8516 42.0672 44.7173 42.3716 44.4487C42.6759 44.1802 42.8281 43.7415 42.8281 43.1328V28.0938H46.2656V43.1328C46.2656 43.849 46.1134 44.4845 45.8091 45.0396C45.5047 45.5767 45.1108 46.0332 44.6274 46.4092C44.144 46.7673 43.589 47.0358 42.9624 47.2148C42.3358 47.4118 41.7002 47.5103 41.0557 47.5103C40.4111 47.5103 39.7845 47.4207 39.1758 47.2417C38.5671 47.0627 38.021 46.7941 37.5376 46.436C37.0542 46.0601 36.6693 45.6035 36.3828 45.0664C36.0964 44.5114 35.9531 43.8669 35.9531 43.1328V9.61719C35.9531 8.90104 36.0964 8.26546 36.3828 7.71045C36.6872 7.15544 37.0811 6.69889 37.5645 6.34082C38.0479 5.98275 38.6029 5.71419 39.2295 5.53516C39.8561 5.33822 40.4917 5.23975 41.1362 5.23975C41.7808 5.23975 42.4074 5.32926 43.0161 5.5083C43.6248 5.68734 44.1709 5.96484 44.6543 6.34082C45.1377 6.69889 45.5226 7.15544 45.8091 7.71045C46.1134 8.24756 46.2656 8.88314 46.2656 9.61719V22.9375ZM60.0156 43.1328C60.0156 43.8848 59.8724 44.5382 59.5859 45.0933C59.3174 45.6304 58.9504 46.078 58.4849 46.436C58.0194 46.7941 57.4912 47.0537 56.9004 47.2148C56.3096 47.3939 55.7008 47.4834 55.0742 47.4834C54.4118 47.4834 53.7583 47.3849 53.1138 47.188C52.4692 47.009 51.8963 46.7404 51.395 46.3823C50.8937 46.0063 50.4819 45.5498 50.1597 45.0127C49.8553 44.4577 49.7031 43.8311 49.7031 43.1328V9.61719C49.7031 8.93685 49.8553 8.33708 50.1597 7.81787C50.4819 7.28076 50.8937 6.83317 51.395 6.4751C51.9142 6.11702 52.4961 5.84847 53.1406 5.66943C53.7852 5.47249 54.4386 5.37402 55.1011 5.37402C55.7277 5.37402 56.3364 5.46354 56.9272 5.64258C57.5181 5.80371 58.0373 6.06331 58.4849 6.42139C58.9504 6.76156 59.3174 7.2002 59.5859 7.7373C59.8724 8.27441 60.0156 8.90104 60.0156 9.61719V43.1328ZM56.5781 9.61719C56.5781 9.00846 56.4259 8.57878 56.1216 8.32812C55.8351 8.05957 55.495 7.92529 55.1011 7.92529C54.8683 7.92529 54.6356 7.97005 54.4028 8.05957C54.1701 8.13118 53.9552 8.24756 53.7583 8.40869C53.5793 8.55192 53.4271 8.73096 53.3018 8.9458C53.1943 9.14274 53.1406 9.36654 53.1406 9.61719V43.1328C53.1406 43.3835 53.1943 43.6162 53.3018 43.8311C53.4271 44.0459 53.5793 44.2249 53.7583 44.3682C53.9552 44.5114 54.1611 44.6278 54.376 44.7173C54.6087 44.7889 54.8415 44.8247 55.0742 44.8247C55.4681 44.8247 55.8172 44.6994 56.1216 44.4487C56.4259 44.1802 56.5781 43.7415 56.5781 43.1328V9.61719Z" fill="black"/>
</svg>
